<svg xmlns="http://www.w3.org/2000/svg" xmlns:xlink="http://www.w3.org/1999/xlink" version="1.1" x="0px" y="0px" viewBox="0 0 100 125" enable-background="new 0 0 100 100" xml:space="preserve"><g><path d="M66.856,51.415c3.546,0.396,6.657,1.009,6.657,1.009c-7.075-3.891-6.892-17.852-6.892-17.852   c0.068-1.505,0.069-2.909,0.026-4.243h-2.865c-0.018,0.848-0.038,1.463-0.062,1.619c-0.268,3.579-1.178,6.875-2.559,9.643   c-2.511,5.032-6.574,8.302-11.163,8.302c-4.589,0-8.653-3.27-11.164-8.302c-1.38-2.768-2.29-6.064-2.559-9.643   c-0.023-0.156-0.043-0.771-0.061-1.619h-2.865c-0.043,1.334-0.042,2.738,0.027,4.243c0,0,0.183,13.961-6.893,17.852   c0,0,3.112-0.612,6.657-1.009c-8.375,2.638-14.45,10.461-14.45,19.706c0,8.997,5.75,9.647,13.773,9.521v-1.722   c0-1.964,1.242-3.649,3.02-4.273c-0.829-1.697-0.511-3.773,0.892-5.166l2.449-2.445c0.837-0.839,2.008-1.32,3.211-1.32   c0.679,0,1.345,0.151,1.947,0.436c0.611-1.782,2.302-3.028,4.28-3.028h3.467c1.968,0,3.654,1.243,4.277,3.025   c0.601-0.288,1.271-0.442,1.96-0.442c1.218,0,2.359,0.476,3.198,1.325l2.454,2.45c1.392,1.39,1.705,3.461,0.886,5.159   c1.781,0.613,3.026,2.303,3.026,4.28v1.722c8.023,0.126,13.773-0.524,13.773-9.521C81.306,61.876,75.23,54.053,66.856,51.415z"/><path d="M33.237,27.141h33.523c1.307,0,2.365-1.059,2.365-2.365c0-1.306-1.059-2.364-2.365-2.364h-0.644   c0-6.282-3.597-11.72-8.841-14.38l-1.335,7.574c-0.106,0.6-0.628,1.021-1.216,1.021c-0.071,0-0.144-0.006-0.217-0.019   c-0.672-0.12-1.12-0.759-1-1.432l1.523-8.651C54.461,5.61,53.446,5,52.286,5h-4.574c-1.159,0-2.173,0.61-2.746,1.525l1.525,8.651   c0.118,0.672-0.33,1.312-1.002,1.432c-0.072,0.013-0.145,0.019-0.216,0.019c-0.588,0-1.11-0.422-1.216-1.021l-1.334-7.572   c-5.245,2.659-8.84,8.097-8.84,14.379h-0.645c-1.306,0-2.363,1.059-2.363,2.364C30.874,26.083,31.932,27.141,33.237,27.141z"/><path d="M63.17,77.591l-2.165-0.363c-0.206-0.668-0.477-1.316-0.801-1.933l1.257-1.761c0.438-0.537,0.396-1.311-0.091-1.798   l-2.454-2.45c-0.253-0.255-0.589-0.392-0.946-0.392c-0.311,0-0.612,0.105-0.824,0.283l-1.786,1.274   c-0.618-0.327-1.268-0.596-1.936-0.805l-0.354-2.131c-0.07-0.687-0.643-1.206-1.337-1.206h-3.467c-0.691,0-1.265,0.52-1.33,1.177   l-0.36,2.16c-0.67,0.209-1.317,0.478-1.938,0.805l-1.759-1.259c-0.239-0.195-0.541-0.29-0.842-0.29c-0.35,0-0.7,0.13-0.954,0.383   l-2.452,2.45C38.138,72.226,38.1,73,38.52,73.511l1.276,1.784c-0.324,0.616-0.595,1.265-0.801,1.933l-2.133,0.356   c-0.688,0.07-1.207,0.645-1.207,1.337v3.468c0,0.694,0.519,1.268,1.177,1.331l2.163,0.362c0.205,0.663,0.478,1.314,0.801,1.936   l-1.253,1.757c-0.442,0.535-0.401,1.31,0.088,1.8l2.452,2.451c0.253,0.252,0.589,0.394,0.948,0.394c0.31,0,0.609-0.108,0.823-0.286   l1.784-1.273c0.621,0.327,1.267,0.597,1.938,0.804l0.354,2.132C47,94.481,47.574,95,48.265,95h3.467   c0.694,0,1.267-0.519,1.329-1.176l0.362-2.161c0.668-0.207,1.317-0.477,1.936-0.804l1.759,1.255   c0.241,0.196,0.543,0.292,0.845,0.292c0.351,0,0.7-0.129,0.953-0.383l2.451-2.451c0.49-0.488,0.532-1.263,0.112-1.772l-1.275-1.782   c0.324-0.618,0.595-1.269,0.801-1.938l2.129-0.359c0.692-0.063,1.213-0.637,1.213-1.331v-3.468   C64.347,78.229,63.826,77.654,63.17,77.591z M49.999,86.393c-3.164,0-5.739-2.571-5.739-5.737s2.575-5.739,5.739-5.739   c3.164,0,5.74,2.573,5.74,5.739S53.163,86.393,49.999,86.393z"/></g></svg>
